/* XPM */
static char *_5b7b604799f41f2a58672c69a13421fipHumpIpyKSRK7qC[] = {
/* columns rows colors chars-per-pixel */
"64 64 21 1 ",
"  c black",
". c #202020",
"X c #2C2C2C",
"o c gray22",
"O c #000040",
"+ c #00004C",
"@ c #000058",
"# c #000064",
"$ c #000070",
"% c #00007C",
"& c #484848",
"* c gray33",
"= c #000088",
"- c #000098",
"; c #0000A4",
": c #0000B0",
"> c #0000BC",
", c #0000D4",
"< c #0000FC",
"1 c #2024FC",
"2 c #4040FC",
/* pixels */
"***********oXXXXXXXXXXXXXXXXXXXXXXXXXXXXXXXXXXXXXXXXX&**********",
"o$$$$$$$$$$$$$$$$$$$$$$$$$$$oo$$$$$$$$$$$$$oo$$$$$$$$$$$$o$$$$$o",
".---------------------===%$$ .--------=%%%% .--------%%#@ ;;;;= ",
".---%-$--=$==$===$$-%$$$$#@+ .--==%--=%%%%+ .-:;:;:::::=$ ;;%=% ",
".-=$%===$$-=-@==@%$$==$$#@@+ .-=--%==$%$-#+ .-;::-:>;:-=$ --;=+ ",
".-%-#=#=$$$=%%$@%#=@$#@@+++@ .-=%%==$%$#+@+ .-:;->:;-=%%# %#$$+ ",
".-%$---@$$$-===%%$#@$$$##@+@ .--%--$###%@++ .-:->1>-:-=#$ =%#@+ ",
".-==;;---=---==#%+$@$$$$#+++ .---%%$#%%%#@+ .-;:-::--;$$# =$+++ ",
".--=-;;-=$@--=%%$###@$$#@+@@ .--%$%%%$%$@++ .-;:;-;;;-$#$ =@+@+ ",
".-=$=--%=$=##%%%@@$%+###@@++ .-=%%#%--$#$+@ .-;>;;%%--=#@       ",
".-%%%-$$$--#+@+#+%#$#@##@+++ .-%%#$$%%#@+@+ .-;:-;%%%=%@+ =;;;- ",
".=$%-%%#=--##+++#@$#@#$$#+@+ .=%$##%%#$@+@+ .-;::-%%%%$@@ -;=;% ",
".=%=$$-%@$+$++++@@%OO+$$$+++ .=%$###%+#+#++ .-;::;-%%=$@@ =-%=@ ",
".=$=$@%%$@$@$@+#+#+OOO+##+@+ .=$%##@@#@+@@+ .-;::-==$%#++ =-=#+ ",
".==$$$#@++@$@#@@++++OO++++++ .%%##@++++@+@+ .-;-:%=%=$$+@ %%$@# ",
".=$=@@#@$@#++@+@@@@+++++++++ .%@%@@++++++++ .=:;::%-%#@++ $#@++ ",
".                            .              .=:;-==%%@+@+       ",
"-:;-;-----;----..............................=;:=:$=$$@++ #>>>>>",
":;-=-:;-%--$-=$ ..@$=$==--$$++OO...+#==-%$##.=:;:==>=$#@+ %>>,:>",
":;==%--%$==$$== .@$====-;--%@##@+..#=-$%$%$@ ==-;:==$$#+@ ->,<,;",
";-=;;==$$$=$$$$ .===;-;;$%=@#@+@#..$-$#@$@+$ %;;:;=%$@+@@ ->>,;>",
"-%=;:;$$==$=+$$ O;=;%;-$+#$#++@#$ .%%-$##+#@ %:;;##%$#@@+ ;>>;-;",
"--%=;;$=$$@@#$$ O--;;-;=#$#+@@@+# .#-%%@+$++ $---###$#+++ :>>;>-",
";%$%=-=$$=@#$++ +-;;->=%$#@@@+##+ .##@++@+@@ $=--%###@+++ ;>;:;-",
";-%=$=$==$#$@$+ #=--%$%%##$#@#++# ..         $==:$$###+@+ ;>;-=:",
";;=%;====$$#+++ #=-%$=%#+##=#$#$# --::--==% .==-==$##+@++ ->>;>>",
";-%$%;;@$=%%#+@ #=%$;-=$#$%>;%#@# -::-=%#%$ .=:;-=$$#@@@+ ->;>:;",
"-=$%-;;-=$%%#+@ +%%$=;==%%=;%$$#$ -=--%#-#@ .-:;:-=%#@+@@ ->>>;-",
";=;==-;-@$###++ O$$%;2;%-=$=%#%@$ --=$%-%## .-;-:-=$#@@#+ %>>>;;",
"-%%--=--@#+@+++ O$$%=;--=--%=$+$+ ---=-##%# .--=-%=%$+++@ %>;>>-",
"-=%---=$#@+@OO+  $%=-%-%-;#;#+@#+ ->;-%#@@@ .-=-%$$$$++++ %>>:;;",
"=%=%--$@@+++OO@  @$$=$=-=-;#+@$++ -=;-%###@ .-=:-=%##+#++ %>>;=-",
"=%%$%%$@@#$$@+@ .+@$$$$=-#$=#$+++ -==-$@@#+ .--;:-%#@$$++ %>;>;=",
"=%-=#$$#@#$$@++ ..O+++++++++++++O -=-@#$#@+ .--;;--=$@$@+ %>;>%%",
"=-=%%$@@+@##@++ ...               --%$@@@++ .-::-====%@++ %>>%=%",
"$==%$$$$+@O++@+ ..@@@@@@###@@@@+..-%%#++@++ .-::-=$==%$#+ #>;>==",
"$%%$#$$$+OOO+++ ..@#$==$=%%$$@@+ .--%$@+@++ .-=:=:$#%$#@+ #>;==%",
"$%@#$@$$+OOOO@+ ..@$==%=$#%##%#+ .--$=#@+++ .---;==##@@@+ #;;=%%",
"$=$@$@#+@O+OO++ ..@=%#==#%#+#=## .--=-$#@++ .-:-==#++#+++ #;=%=%",
"$%=%#$#+++OOO++ ..@=$=$$=#%@+##+ .-=-=%$#@@ .-:=-=#@++#++ #;===%",
"$=%$@#$#++@++@@ ..@%==$#@+@++@++ .--%$$#@@+ .=;==$$#@@+++ #===$=",
"                ..@=%$@++@++###+ .==$$@#+@+ .=-=$+$++@+++ .     ",
"......++##%%%$#@++.              .=-$@##++@ .%$+@+##@++++ .####.",
"..=-;::::::::::::;;;--==$.........==$#@++++ .%$@@++++@+#+ .#+$+.",
"..-:::::;-;:---:--;;$%%%@ .++@@#..=$%#+++++ ..            .+++#.",
"..-:;;-;;:::=-:::;-%;@$+@ .+=%;$ .%$%@#@+@@ ....................",
"..:::;;::==-::=;%-==$%@+@ .+-;=+ .$$@#@++++ ..:::::::::::::;;;-.",
"..:-;-;;;===:-%%-$===$#++ .@;;-% ..         ..::::;;--;;;--;:-% ",
"..::;=%;;-==-::---$==$++@ .@-%#+ .%=-;---=%%..:;;:;->>-;-=::==% ",
"..::=-:;%-;;;$--<-=@#@+@+ .#=#++ .=-;-=;=;## .::;;-::>$$=%$=#%$ ",
"..::::-%:%;$$-%--=$==$@@@ .#%@+@ .-;;-%$%#+@ .:;:;-;;-$$$=-$$$# ",
"..:-:=--:;=$$$--#$=$$@+$+ ..     .=-%%$#+@++ .::;,,-=-=$$-%%=@+ ",
"..:;==:,:-%-$$--%%$=##@++ ........           .:;-,,>:;-=;$#==@+ ",
"..:-:-,2,==-=%$%%%%$OO+@+ .===-------===%%##..:;-=>>-=$=$%==$@+ ",
"..:;:;:,:-$--@@@$%%#OOO++ .=-=%-%=--%=-$$##+ .:--;=%=%-%$%-%#@+ ",
"..:-:;;;%%%$#@@@@###+OO++ .==%%%---;=%%%@#++ .::-==%%$%===%#@++ ",
"..-:;;-$$=-==$@@@@#@+$+++ .-%--;=-=---=%$#+@ .:;-=$$$#$%=$@+@#+ ",
"..:-:;%%;$--=#$+#$$+@+++@ .--%-=%$%=--=%$+@@ .:;:;-%#++$#++OO@+ ",
"..:-:-=%$@%--=#@+$$$+@+@+ .=%-=%-$%===%$#@++ .::--$$=++@#++OOO+ ",
"..;-%%%-@%@%==##@$$$++#++ .=-%$$$%#$$%$#@+++ .;=-=:=$$@#+#++OO+ ",
"..;-#@%@-$$=+@++@+$$++@@+ .%=-$#$@$#$###+@@+ .;:-$=##$+@+++@@@+ ",
"..--%%@%+@+@#@#@#++++++++ .%=%$#@##@+#++@@++ .-$=$%=$#@+@+@++++ ",
"..-=$%=######@@@@@@@@@@@@ .%$######@@@@@@#@#..-=$%$##@@@@@@@@@@.",
"oo$$$$$$$$$$$$$$$$$$$$$$$oo$$$$$$$$$$$$$$$$$oo$$$$$$$$$$$$$$$$$X"
};
